<svg xmlns="http://www.w3.org/2000/svg" width="48" height="48" fill="none" viewBox="0 0 48 48">
    <mask id="2rot0gez8a" fill="#fff">
        <path d="M2.624 8c-.212-.003-.423.036-.62.115-.196.08-.376.197-.527.346-.151.149-.271.326-.353.522C1.042 9.178 1 9.388 1 9.6c0 .212.042.422.124.618.082.195.202.373.353.522.151.149.33.266.527.345.197.079.408.118.62.115H18.64c.213.003.423-.036.62-.115.197-.08.376-.197.527-.345.151-.15.272-.327.354-.522.081-.196.124-.406.124-.618 0-.212-.043-.422-.124-.617-.082-.196-.203-.373-.354-.522-.15-.15-.33-.267-.527-.346-.197-.079-.407-.118-.62-.115H2.624zm22.421 0c-.212-.003-.423.036-.62.115-.197.08-.376.197-.527.346-.151.149-.271.326-.353.522-.082.195-.124.405-.124.617 0 .212.042.422.124.618.082.195.202.373.353.522.151.149.33.266.527.345.197.079.408.118.62.115h3.203c.904 0 1.602.697 1.602 1.6v19.733H17.876c-.704-2.451-2.974-4.266-5.643-4.266-2.669 0-4.938 1.815-5.642 4.266h-.764c-.903 0-1.601-.697-1.601-1.6V28.8c.003-.214-.037-.427-.118-.625-.08-.198-.2-.379-.352-.53-.152-.151-.332-.27-.53-.351-.2-.08-.412-.12-.627-.117-.424.007-.828.181-1.124.486-.296.304-.458.713-.452 1.137v2.133c0 2.632 2.17 4.8 4.804 4.8h.764C7.295 38.185 9.564 40 12.233 40c2.67 0 4.939-1.815 5.643-4.267h13.27C31.852 38.185 34.122 40 36.79 40c2.67 0 4.94-1.815 5.643-4.267h.764c2.634 0 4.804-2.168 4.804-4.8v-6.787c0-.674-.142-1.335-.413-1.946l-.002-.002-3.149-7.08v-.001c-.769-1.73-2.495-2.85-4.39-2.85H33C32.725 9.885 30.7 8 28.248 8h-3.204zm-22.42 6.4c-.213-.003-.424.036-.62.115-.197.08-.377.197-.528.346-.151.148-.271.326-.353.521-.082.196-.124.406-.124.618 0 .212.042.422.124.618.082.195.202.373.353.522.151.148.33.266.527.345.197.079.408.118.62.115H14.37c.212.003.422-.036.62-.115.196-.08.376-.197.527-.345.15-.15.27-.327.353-.522.082-.196.124-.406.124-.618 0-.212-.042-.422-.124-.617-.082-.196-.202-.373-.353-.522-.151-.15-.33-.267-.527-.346-.198-.079-.408-.118-.62-.115H2.624zm30.428 1.067h6.994c.638 0 1.203.368 1.462.95l1.95 4.383H33.052v-5.333zM2.624 20.8c-.212-.003-.423.036-.62.115-.196.08-.376.197-.527.346-.151.149-.271.326-.353.521-.082.196-.124.406-.124.618 0 .212.042.422.124.618.082.195.202.373.353.521.151.15.33.267.527.346.197.079.408.118.62.115h7.474c.212.003.423-.036.62-.115.197-.08.376-.197.527-.346.151-.148.271-.326.353-.521.082-.196.124-.406.124-.618 0-.212-.042-.422-.124-.617-.082-.196-.202-.373-.353-.522-.151-.15-.33-.267-.527-.346-.197-.079-.408-.118-.62-.115H2.624zM33.053 24h11.73c.004.049.014.097.014.146v6.787c0 .903-.698 1.6-1.601 1.6h-.764c-.704-2.451-2.974-4.266-5.643-4.266-1.415 0-2.718.51-3.736 1.356V24zm-20.82 7.467c1.44 0 2.578 1.101 2.655 2.518-.01.099-.01.198 0 .296-.077 1.417-1.215 2.519-2.655 2.519-1.44 0-2.578-1.102-2.654-2.519.009-.098.009-.197 0-.296.076-1.417 1.214-2.518 2.654-2.518zm24.556 0c1.491 0 2.67 1.177 2.67 2.666 0 1.49-1.179 2.667-2.67 2.667-1.49 0-2.669-1.177-2.669-2.667 0-1.49 1.179-2.666 2.67-2.666z"/>
    </mask>
    <path fill="#000" stroke="#fff" stroke-width="1.2" d="M2.624 8c-.212-.003-.423.036-.62.115-.196.08-.376.197-.527.346-.151.149-.271.326-.353.522C1.042 9.178 1 9.388 1 9.6c0 .212.042.422.124.618.082.195.202.373.353.522.151.149.33.266.527.345.197.079.408.118.62.115H18.64c.213.003.423-.036.62-.115.197-.08.376-.197.527-.345.151-.15.272-.327.354-.522.081-.196.124-.406.124-.618 0-.212-.043-.422-.124-.617-.082-.196-.203-.373-.354-.522-.15-.15-.33-.267-.527-.346-.197-.079-.407-.118-.62-.115H2.624zm22.421 0c-.212-.003-.423.036-.62.115-.197.08-.376.197-.527.346-.151.149-.271.326-.353.522-.082.195-.124.405-.124.617 0 .212.042.422.124.618.082.195.202.373.353.522.151.149.33.266.527.345.197.079.408.118.62.115h3.203c.904 0 1.602.697 1.602 1.6v19.733H17.876c-.704-2.451-2.974-4.266-5.643-4.266-2.669 0-4.938 1.815-5.642 4.266h-.764c-.903 0-1.601-.697-1.601-1.6V28.8c.003-.214-.037-.427-.118-.625-.08-.198-.2-.379-.352-.53-.152-.151-.332-.27-.53-.351-.2-.08-.412-.12-.627-.117-.424.007-.828.181-1.124.486-.296.304-.458.713-.452 1.137v2.133c0 2.632 2.17 4.8 4.804 4.8h.764C7.295 38.185 9.564 40 12.233 40c2.67 0 4.939-1.815 5.643-4.267h13.27C31.852 38.185 34.122 40 36.79 40c2.67 0 4.94-1.815 5.643-4.267h.764c2.634 0 4.804-2.168 4.804-4.8v-6.787c0-.674-.142-1.335-.413-1.946l-.002-.002-3.149-7.08v-.001c-.769-1.73-2.495-2.85-4.39-2.85H33C32.725 9.885 30.7 8 28.248 8h-3.204zm-22.42 6.4c-.213-.003-.424.036-.62.115-.197.08-.377.197-.528.346-.151.148-.271.326-.353.521-.082.196-.124.406-.124.618 0 .212.042.422.124.618.082.195.202.373.353.522.151.148.33.266.527.345.197.079.408.118.62.115H14.37c.212.003.422-.036.62-.115.196-.08.376-.197.527-.345.15-.15.27-.327.353-.522.082-.196.124-.406.124-.618 0-.212-.042-.422-.124-.617-.082-.196-.202-.373-.353-.522-.151-.15-.33-.267-.527-.346-.198-.079-.408-.118-.62-.115H2.624zm30.428 1.067h6.994c.638 0 1.203.368 1.462.95l1.95 4.383H33.052v-5.333zM2.624 20.8c-.212-.003-.423.036-.62.115-.196.08-.376.197-.527.346-.151.149-.271.326-.353.521-.082.196-.124.406-.124.618 0 .212.042.422.124.618.082.195.202.373.353.521.151.15.33.267.527.346.197.079.408.118.62.115h7.474c.212.003.423-.036.62-.115.197-.08.376-.197.527-.346.151-.148.271-.326.353-.521.082-.196.124-.406.124-.618 0-.212-.042-.422-.124-.617-.082-.196-.202-.373-.353-.522-.151-.15-.33-.267-.527-.346-.197-.079-.408-.118-.62-.115H2.624zM33.053 24h11.73c.004.049.014.097.014.146v6.787c0 .903-.698 1.6-1.601 1.6h-.764c-.704-2.451-2.974-4.266-5.643-4.266-1.415 0-2.718.51-3.736 1.356V24zm-20.82 7.467c1.44 0 2.578 1.101 2.655 2.518-.01.099-.01.198 0 .296-.077 1.417-1.215 2.519-2.655 2.519-1.44 0-2.578-1.102-2.654-2.519.009-.098.009-.197 0-.296.076-1.417 1.214-2.518 2.654-2.518zm24.556 0c1.491 0 2.67 1.177 2.67 2.666 0 1.49-1.179 2.667-2.67 2.667-1.49 0-2.669-1.177-2.669-2.667 0-1.49 1.179-2.666 2.67-2.666z" mask="url(#2rot0gez8a)"/>
</svg>
